<svg width="237" height="71" viewBox="0 0 237 71" fill="none" xmlns="http://www.w3.org/2000/svg">
<g filter="url(#filter0_d)">
<path d="M50 45L49.95 24L39.65 41.3H36L25.75 24.45V45H18.15V10H24.85L37.95 31.75L50.85 10H57.5L57.6 45H50ZM88.9539 37.5H72.7039L69.6039 45H61.3039L76.9039 10H84.9039L100.554 45H92.0539L88.9539 37.5ZM86.4039 31.35L80.8539 17.95L75.3039 31.35H86.4039ZM104.185 10H112.285V45H104.185V10ZM148.941 38.4V45H118.341V39.75L137.541 16.6H118.741V10H148.191V15.25L129.041 38.4H148.941ZM181.236 38.5V45H154.136V10H180.586V16.5H162.186V24.1H178.436V30.4H162.186V38.5H181.236ZM209.981 45L203.231 35.25H202.831H195.781V45H187.681V10H202.831C205.931 10 208.615 10.5167 210.881 11.55C213.181 12.5833 214.948 14.05 216.181 15.95C217.415 17.85 218.031 20.1 218.031 22.7C218.031 25.3 217.398 27.55 216.131 29.45C214.898 31.3167 213.131 32.75 210.831 33.75L218.681 45H209.981ZM209.831 22.7C209.831 20.7333 209.198 19.2333 207.931 18.2C206.665 17.1333 204.815 16.6 202.381 16.6H195.781V28.8H202.381C204.815 28.8 206.665 28.2667 207.931 27.2C209.198 26.1333 209.831 24.6333 209.831 22.7Z" fill="#FFFDFD"/>
</g>
<defs>
<filter id="filter0_d" x="0.150024" y="0" width="236.531" height="71" filterUnits="userSpaceOnUse" color-interpolation-filters="sRGB">
<feFlood flood-opacity="0" result="BackgroundImageFix"/>
<feColorMatrix in="SourceAlpha" type="matrix" values="0 0 0 0 0 0 0 0 0 0 0 0 0 0 0 0 0 0 127 0"/>
<feOffset dy="8"/>
<feGaussianBlur stdDeviation="9"/>
<feColorMatrix type="matrix" values="0 0 0 0 1 0 0 0 0 1 0 0 0 0 1 0 0 0 1 0"/>
<feBlend mode="normal" in2="BackgroundImageFix" result="effect1_dropShadow"/>
<feBlend mode="normal" in="SourceGraphic" in2="effect1_dropShadow" result="shape"/>
</filter>
</defs>
</svg>
